<?xml version="1.0" encoding="UTF-8"?>
<svg id="Layer_1" xmlns="http://www.w3.org/2000/svg" viewBox="0 0 100.12 82.94">
  <defs>
    <style>
      .cls-1 {
        fill: #008fff;
      }

      .cls-2 {
        fill: #797c7d;
      }
    </style>
  </defs>
  <path class="cls-2" d="M.25,34.51c0-1.06.01-2.05,0-3.04-.05-3.1.16-6.21-.23-9.3-.07-.58.09-.95.67-1.19,3.85-1.59,7.7-3.19,11.54-4.81,3.84-1.62,7.67-3.28,11.51-4.91,3.88-1.64,7.77-3.25,11.65-4.89,3.84-1.62,7.67-3.28,11.52-4.89,1.23-.51,2.41-1.16,3.8-1.48,0,4.26-.01,8.44.01,12.62,0,.56-.3.76-.72.93-6.37,2.71-12.72,5.44-19.1,8.13-6.77,2.86-13.57,5.66-20.35,8.51-3.23,1.35-6.44,2.75-9.67,4.12-.18.08-.37.11-.65.19Z"/>
  <path class="cls-1" d="M100.12,49.39c0,4.35,0,8.53,0,12.72,0,.42-.08.62-.57.83-8.93,3.73-17.83,7.52-26.75,11.29-6.75,2.85-13.51,5.69-20.25,8.57-.68.29-.83.19-.83-.5.01-3.95.02-7.9,0-11.84,0-.62.33-.83.78-1.02,5.86-2.45,11.74-4.88,17.59-7.35,9.58-4.05,19.15-8.14,28.73-12.21.36-.15.73-.27,1.3-.48Z"/>
  <path class="cls-2" d="M1.23,35.04c2.74-1.16,5.23-2.22,7.73-3.28,2.28-.96,4.63-1.8,6.83-2.92,1.05-.53,1.81-.2,2.64.15,6.52,2.75,13.02,5.54,19.54,8.3,3.84,1.63,7.68,3.23,11.53,4.83.83.34,1.28.74,1.25,1.79-.09,3.67-.07,7.34-.01,11,.02,1.04-.39,1-1.08.7-4.81-2.05-9.61-4.12-14.43-6.16-5.33-2.25-10.67-4.48-16-6.72-5.8-2.44-11.59-4.9-17.38-7.35-.13-.06-.25-.14-.63-.35Z"/>
  <path class="cls-1" d="M51.72,28.81c15.86,6.71,31.55,13.35,47.39,20.05-2.2.94-4.27,1.85-6.36,2.73-2.98,1.26-5.98,2.48-8.95,3.76-.48.21-.8.17-1.26-.03-7.34-3.1-14.7-6.16-22.04-9.24-2.7-1.13-5.39-2.31-8.09-3.44-.51-.21-.71-.51-.7-1.07.02-4.19.01-8.37.01-12.76Z"/>
  <path class="cls-2" d="M51.78,68.92c-.02-.46-.06-.77-.06-1.07,0-7.85.02-15.7-.03-23.55,0-1,.28-1.13,1.1-.78,4,1.74,8.01,3.48,12.03,5.18.6.26.81.57.8,1.22-.03,4.1-.02,8.21,0,12.31,0,.46-.03.83-.53,1.04-4.4,1.86-8.8,3.73-13.3,5.64Z"/>
  <path class="cls-2" d="M66.57,34.23c-2.17-.9-4.2-1.73-6.21-2.58-2.36-.99-4.68-2.08-7.08-2.98-1.16-.44-1.64-.98-1.6-2.3.11-3.55.08-7.1.01-10.64-.02-1.04.4-.97,1.07-.68,4.41,1.88,8.82,3.77,13.24,5.64.32.13.58.2.58.61,0,4.26,0,8.51,0,12.94Z"/>
</svg>